grf
version=1
nRows=44
nColumns=19
inDegrees=yes
endheader
time	ground_force_2_vx	ground_force_2_vy	ground_force_2_vz	ground_force_2_px	ground_force_2_py	ground_force_2_pz	ground_moment_2_mx	ground_moment_2_my	ground_moment_2_mz	ground_force_3_vx	ground_force_3_vy	ground_force_3_vz	ground_force_3_px	ground_force_3_py	ground_force_3_pz	ground_moment_3_mx	ground_moment_3_my	ground_moment_3_mz
0.525000	0.000000	0.000000	0.000000	-0.304991	0.000000	0.214620	0.000000	0.000000	0.000000	10.204340	442.062440	-14.387529	-0.812439	0.000000	0.356671	-0.000000	1.151023	0.000000
0.526000	0.000000	0.000000	0.000000	-0.303882	0.000000	0.214530	0.000000	0.000000	0.000000	10.321235	442.814748	-14.493328	-0.812049	0.000000	0.356733	-0.000000	1.161857	0.000000
0.527000	0.000000	0.000000	0.000000	-0.302830	0.000000	0.214445	0.000000	0.000000	0.000000	10.434738	443.565875	-14.600304	-0.811655	0.000000	0.356795	-0.000000	1.172434	0.000000
0.528000	0.000000	0.000000	0.000000	-0.301827	0.000000	0.214363	0.000000	0.000000	0.000000	10.544863	444.315867	-14.708473	-0.811257	0.000000	0.356857	-0.000000	1.182753	0.000000
0.529000	0.000000	0.000000	0.000000	-0.300870	0.000000	0.214285	0.000000	0.000000	0.000000	10.651627	445.064781	-14.817850	-0.810856	0.000000	0.356920	-0.000000	1.192813	0.000000
0.530000	0.000000	0.000000	0.000000	-0.299952	0.000000	0.214211	0.000000	0.000000	0.000000	10.755051	445.812687	-14.928450	-0.810451	0.000000	0.356984	-0.000000	1.202614	0.000000
0.531000	0.000000	0.000000	0.000000	-0.299070	0.000000	0.214139	0.000000	0.000000	0.000000	10.855160	446.559667	-15.040286	-0.810043	0.000000	0.357047	-0.000000	1.212157	0.000000
0.532000	0.000000	0.000000	0.000000	-0.298220	0.000000	0.214070	0.000000	0.000000	0.000000	10.951983	447.305810	-15.153373	-0.809631	0.000000	0.357112	-0.000000	1.221440	0.000000
0.533000	0.000000	0.000000	0.000000	-0.297398	0.000000	0.214004	0.000000	0.000000	0.000000	11.045554	448.051220	-15.267723	-0.809216	0.000000	0.357177	-0.000000	1.230464	0.000000
0.534000	0.000000	0.000000	0.000000	-0.296601	0.000000	0.213939	0.000000	0.000000	0.000000	11.135911	448.796008	-15.383349	-0.808796	0.000000	0.357243	-0.000000	1.239230	0.000000
0.535000	0.000000	0.000000	0.000000	-0.295826	0.000000	0.213876	0.000000	0.000000	0.000000	11.223095	449.540297	-15.500262	-0.808374	0.000000	0.357309	-0.000000	1.247737	0.000000
0.536000	0.000000	0.000000	0.000000	-0.295070	0.000000	0.213815	0.000000	0.000000	0.000000	11.307153	450.284218	-15.618473	-0.807948	0.000000	0.357375	-0.000000	1.255987	0.000000
0.537000	0.000000	0.000000	0.000000	-0.294333	0.000000	0.213755	0.000000	0.000000	0.000000	11.388136	451.027913	-15.737993	-0.807518	0.000000	0.357443	-0.000000	1.263981	0.000000
0.538000	0.000000	0.000000	0.000000	-0.293610	0.000000	0.213696	0.000000	0.000000	0.000000	11.466097	451.771531	-15.858832	-0.807085	0.000000	0.357510	-0.000000	1.271719	0.000000
0.539000	0.000000	0.000000	0.000000	-0.292900	0.000000	0.213639	0.000000	0.000000	0.000000	11.541097	452.515230	-15.980997	-0.806648	0.000000	0.357579	-0.000000	1.279202	0.000000
0.540000	0.000000	0.000000	0.000000	-0.292202	0.000000	0.213582	0.000000	0.000000	0.000000	11.613199	453.259179	-16.104498	-0.806208	0.000000	0.357648	-0.000000	1.286432	0.000000
0.541000	0.000000	0.000000	0.000000	-0.291513	0.000000	0.213526	0.000000	0.000000	0.000000	11.682472	454.003551	-16.229340	-0.805763	0.000000	0.357718	-0.000000	1.293411	0.000000
0.542000	0.000000	0.000000	0.000000	-0.290832	0.000000	0.213471	0.000000	0.000000	0.000000	11.748988	454.748528	-16.355531	-0.805316	0.000000	0.357788	-0.000000	1.300140	0.000000
0.543000	0.000000	0.000000	0.000000	-0.290158	0.000000	0.213416	0.000000	0.000000	0.000000	11.812826	455.494301	-16.483076	-0.804865	0.000000	0.357859	-0.000000	1.306621	0.000000
0.544000	0.000000	0.000000	0.000000	-0.289488	0.000000	0.213361	0.000000	0.000000	0.000000	11.874066	456.241064	-16.611979	-0.804411	0.000000	0.357930	-0.000000	1.312856	0.000000
0.545000	0.000000	0.000000	0.000000	-0.288821	0.000000	0.213307	0.000000	0.000000	0.000000	11.932796	456.989020	-16.742245	-0.803953	0.000000	0.358002	-0.000000	1.318847	0.000000
0.546000	0.000000	0.000000	0.000000	-0.288155	0.000000	0.213253	0.000000	0.000000	0.000000	11.989107	457.738378	-16.873875	-0.803491	0.000000	0.358075	-0.000000	1.324597	0.000000
0.547000	0.000000	0.000000	0.000000	-0.287490	0.000000	0.213199	0.000000	0.000000	0.000000	12.043093	458.489350	-17.006872	-0.803026	0.000000	0.358148	-0.000000	1.330107	0.000000
0.548000	0.000000	0.000000	0.000000	-0.286823	0.000000	0.213145	0.000000	0.000000	0.000000	12.094856	459.242155	-17.141236	-0.802558	0.000000	0.358222	-0.000000	1.335382	0.000000
0.549000	0.000000	0.000000	0.000000	-0.286154	0.000000	0.213091	0.000000	0.000000	0.000000	12.144499	459.997017	-17.276968	-0.802086	0.000000	0.358297	-0.000000	1.340422	0.000000
0.550000	0.000000	0.000000	0.000000	-0.285481	0.000000	0.213036	0.000000	0.000000	0.000000	12.192132	460.754162	-17.414065	-0.801611	0.000000	0.358372	-0.000000	1.345232	0.000000
0.551000	0.000000	0.000000	0.000000	-0.284801	0.000000	0.212981	0.000000	0.000000	0.000000	12.237869	461.513821	-17.552527	-0.801133	0.000000	0.358447	-0.000000	1.349815	0.000000
0.552000	0.000000	0.000000	0.000000	-0.284114	0.000000	0.212925	0.000000	0.000000	0.000000	12.281827	462.276228	-17.692349	-0.800651	0.000000	0.358524	-0.000000	1.354173	0.000000
0.553000	0.000000	0.000000	0.000000	-0.283418	0.000000	0.212869	0.000000	0.000000	0.000000	12.324129	463.041621	-17.833527	-0.800166	0.000000	0.358601	-0.000000	1.358311	0.000000
0.554000	0.000000	0.000000	0.000000	-0.282711	0.000000	0.212811	0.000000	0.000000	0.000000	12.364902	463.810237	-17.976057	-0.799678	0.000000	0.358679	-0.000000	1.362231	0.000000
0.555000	0.000000	0.000000	0.000000	-0.281992	0.000000	0.212753	0.000000	0.000000	0.000000	12.404277	464.582318	-18.119931	-0.799186	0.000000	0.358757	-0.000000	1.365937	0.000000
0.556000	0.000000	0.000000	0.000000	-0.281257	0.000000	0.212693	0.000000	0.000000	0.000000	12.442390	465.358105	-18.265143	-0.798691	0.000000	0.358836	-0.000000	1.369433	0.000000
0.557000	0.000000	0.000000	0.000000	-0.280506	0.000000	0.212632	0.000000	0.000000	0.000000	12.479380	466.137841	-18.411683	-0.798194	0.000000	0.358916	-0.000000	1.372724	0.000000
0.558000	0.000000	0.000000	0.000000	-0.279736	0.000000	0.212570	0.000000	0.000000	0.000000	12.515391	466.921771	-18.559543	-0.797692	0.000000	0.358996	-0.000000	1.375812	0.000000
0.559000	0.000000	0.000000	0.000000	-0.278944	0.000000	0.212506	0.000000	0.000000	0.000000	12.550570	467.710135	-18.708710	-0.797188	0.000000	0.359077	-0.000000	1.378703	0.000000
0.560000	0.000000	0.000000	0.000000	-0.278127	0.000000	0.212439	0.000000	0.000000	0.000000	12.585071	468.503176	-18.859175	-0.796681	0.000000	0.359158	-0.000000	1.381400	0.000000
0.561000	0.000000	0.000000	0.000000	-0.277283	0.000000	0.212371	0.000000	0.000000	0.000000	12.619048	469.301136	-19.010923	-0.796171	0.000000	0.359240	-0.000000	1.383908	0.000000
0.562000	0.000000	0.000000	0.000000	-0.276408	0.000000	0.212300	0.000000	0.000000	0.000000	12.652662	470.104253	-19.163941	-0.795658	0.000000	0.359323	-0.000000	1.386231	0.000000
0.563000	0.000000	0.000000	0.000000	-0.275499	0.000000	0.212226	0.000000	0.000000	0.000000	12.686075	470.912765	-19.318213	-0.795142	0.000000	0.359406	-0.000000	1.388375	0.000000
0.564000	0.000000	0.000000	0.000000	-0.274550	0.000000	0.212149	0.000000	0.000000	0.000000	12.719456	471.726905	-19.473724	-0.794623	0.000000	0.359490	-0.000000	1.390343	0.000000
0.565000	0.000000	0.000000	0.000000	-0.273559	0.000000	0.212068	0.000000	0.000000	0.000000	12.752975	472.546905	-19.630455	-0.794101	0.000000	0.359575	-0.000000	1.392141	0.000000
0.566000	0.000000	0.000000	0.000000	-0.272517	0.000000	0.211984	0.000000	0.000000	0.000000	12.786806	473.372991	-19.788388	-0.793577	0.000000	0.359660	-0.000000	1.393774	0.000000
0.567000	0.000000	0.000000	0.000000	-0.271421	0.000000	0.211895	0.000000	0.000000	0.000000	12.821127	474.205386	-19.947505	-0.793050	0.000000	0.359745	-0.000000	1.395246	0.000000
0.568000	0.000000	0.000000	0.000000	-0.270262	0.000000	0.211801	0.000000	0.000000	0.000000	12.856119	475.044310	-20.107782	-0.792520	0.000000	0.359832	-0.000000	1.396563	0.000000
